#!OML:ASF H:\Terrain\Patient Classification 1\Walking\steve\steve.ASF
:FULLY-SPECIFIED
:DEGREES
126
root 7.95057 15.5693 -12.5457 8.4205 -4.63346 -2.36665
lowerback 0.234092 4.12192 1.06709
upperback -3.62999 5.50088 -1.10615
thorax -3.65797 2.69377 -1.91113
lowerneck -11.6688 -2.73494 -2.63728
upperneck 12.706 -4.17666 6.29667
head 5.95566 -1.67907 2.0653
rclavicle -1.26141e-013 1.74931e-014
rhumerus -37.0224 -0.225053 -86.56
rradius 70.7316
rwrist -13.3842
rhand -27.8479 -36.4558
rfingers 7.12502
rthumb -1.23898 -66.432
lclavicle -1.26141e-013 1.74931e-014
lhumerus -61.6328 23.4637 49.0881
lradius 3.91131
lwrist -27.3673
lhand -24.4041 -7.80767
lfingers 7.12502
lthumb 2.08709 22.1619
rfemur 4.67876 4.8174 25.0094
rtibia 40.7273
rfoot 18.7347 4.46306
rtoes -8.37604
lfemur -43.3515 0.751313 -18.405
ltibia 37.6479
lfoot -4.59583 1.85724
ltoes -0.613764
127
root 7.96835 15.5948 -12.2843 7.99237 -4.39224 -2.22255
lowerback 0.669811 4.03574 1.17103
upperback -3.46742 5.38848 -1.20802
thorax -3.72002 2.63229 -2.09624
lowerneck -11.5183 -2.73486 -2.95619
upperneck 12.5172 -4.1543 6.58169
head 5.88211 -1.66821 2.21123
rclavicle -4.48011e-014 3.18055e-015
rhumerus -38.1107 -0.8275 -86.6593
rradius 69.8204
rwrist -13.8355
rhand -28.043 -38.0358
rfingers 7.12502
rthumb -1.42743 -68.0108
lclavicle -4.48011e-014 3.18055e-015
lhumerus -61.7715 24.038 48.5528
lradius 4.91036
lwrist -27.8396
lhand -24.7146 -7.88661
lfingers 7.12502
lthumb 1.78726 22.0857
rfemur 3.36573 4.7477 24.8157
rtibia 44.5415
rfoot 21.1 1.4923
rtoes -1.29808
lfemur -42.2083 0.323795 -18.66
ltibia 38.3481
lfoot -5.38563 1.53036
ltoes 2.77963
128
root 7.98533 15.6347 -12.0229 7.83544 -4.66285 -1.89899
lowerback 0.919122 4.11892 0.932275
upperback -3.48727 5.49229 -1.27636
thorax -3.89259 2.68756 -2.06012
lowerneck -11.3295 -2.68734 -3.08729
upperneck 12.4089 -4.03921 6.41772
head 5.80865 -1.6362 2.1924
rclavicle 1.07841e-014 -1.98785e-015
rhumerus -39.5152 -1.16242 -86.5779
rradius 68.9644
rwrist -14.4921
rhand -27.9619 -39.0025
rfingers 7.12502
rthumb -1.34908 -68.978
lclavicle 1.07841e-014 -1.98785e-015
lhumerus -61.8167 24.6324 48.1136
lradius 5.53052
lwrist -28.3118
lhand -24.5217 -8.96894
lfingers 7.12502
lthumb 1.97352 21.0017
rfemur 1.5418 4.91494 24.2633
rtibia 48.467
rfoot 23.0108 -2.68628
rtoes 6.71977
lfemur -41.0698 0.300103 -19.1811
ltibia 38.6776
lfoot -6.43845 1.32049
ltoes 3.10032
129
root 7.99856 15.6786 -11.76 7.61943 -5.10615 -1.35962
lowerback 1.16272 4.19851 0.450731
upperback -3.47408 5.5757 -1.50307
thorax -4.03644 2.73849 -2.0508
lowerneck -11.2786 -2.54782 -2.65214
upperneck 12.2015 -3.86547 6.08581
head 5.71143 -1.55999 2.03108
rclavicle -1.64867e-014 -7.95139e-015
rhumerus -41.0221 -1.2888 -86.8407
rradius 68.0887
rwrist -15.0359
rhand -26.0459 -35.3956
rfingers 7.12502
rthumb 0.501435 -65.3748
lclavicle -1.64867e-014 -7.95139e-015
lhumerus -61.8221 25.3045 47.4417
lradius 6.30081
lwrist -28.7162
lhand -24.1994 -9.9126
lfingers 7.12502
lthumb 2.28477 20.0549
rfemur -0.453484 5.19342 23.6005
rtibia 52.4493
rfoot 23.4621 -6.00089
rtoes 7.63435
lfemur -39.6838 0.509694 -20.037
ltibia 38.6774
lfoot -7.38255 1.28773
ltoes 0.326163
130
root 8.01014 15.7187 -11.5073 7.30326 -5.44787 -0.464084
lowerback 1.49083 4.14715 -0.458215
upperback -3.33835 5.46267 -1.7901
thorax -4.14192 2.70493 -1.8613
lowerneck -11.6528 -2.42012 -2.36156
upperneck 12.2556 -3.71656 5.91522
head 5.7769 -1.47919 1.93917
rclavicle -3.88251e-014 -2.06736e-014
rhumerus -41.845 -1.59709 -87.2568
rradius 66.6409
rwrist -15.0912
rhand -25.7278 -36.959
rfingers 7.12502
rthumb 0.808643 -66.9372
lclavicle -3.88251e-014 -2.06736e-014
lhumerus -61.7665 26.4127 46.7344
lradius 6.95805
lwrist -29.0534
lhand -24.0324 -10.5942
lfingers 7.12502
lthumb 2.44606 19.3715
rfemur -2.40189 5.27845 22.595
rtibia 56.3922
rfoot 21.9953 -8.05403
rtoes 4.79438
lfemur -38.0197 0.554466 -21.2508
ltibia 38.2281
lfoot -8.08577 1.42908
ltoes -1.7531
